    <svg xmlns="http://www.w3.org/2000/svg" width="20" height="20" preserveAspectRatio="xMinYMin meet"
      viewBox="0 0 300 200"
      style="shape-rendering:geometricPrecision;text-rendering:geometricPrecision;image-rendering:optimizeQuality;fill-rule:evenodd;clip-rule:evenodd">
      <path style="opacity:1" fill="#fefefe" d="M-.5-.5h370v399H-.5V-.5z" />
      <path style="opacity:1" fill="#030303"
        d="M154.5 62.5a669.487 669.487 0 0 1 37 23 32290.512 32290.512 0 0 1-83 151.5c47.471 29.24 95.138 58.24 143 87 1.017 1.049 1.184 2.216.5 3.5-2.595 5.9-5.928 11.234-10 16A43926.405 43926.405 0 0 1 72.5 242c-4.452-2.542-8.452-5.542-12-9a41895.633 41895.633 0 0 1 94-170.5z" />
      <path style="opacity:1" fill="#050505"
        d="M180.5 115.5a450.703 450.703 0 0 1 49 28.5 89.042 89.042 0 0 1 13 14.5 6.802 6.802 0 0 0 1.5-3c5.343 2.742 10.177 6.075 14.5 10a2741.494 2741.494 0 0 0-21 118 9321.344 9321.344 0 0 0 84-79.5c1-.667 2-.667 3 0a129.073 129.073 0 0 1 13 8 4624.917 4624.917 0 0 1-104 94.5 86.494 86.494 0 0 1-15-9.5 1474.105 1474.105 0 0 0 9.5-57.5c-12.671 20.25-30.838 29.75-54.5 28.5a66.95 66.95 0 0 1-17-7 1276.705 1276.705 0 0 1-41-26 11831.274 11831.274 0 0 0 65-119.5z" />
      <path style="opacity:1" fill="#fdfdfd"
        d="M187.5 137.5a576.843 576.843 0 0 1 28 15.5c13.851 9.207 19.351 22.04 16.5 38.5-4.622 21.087-14.789 38.92-30.5 53.5-13.122 8.236-26.455 8.57-40 1a476.608 476.608 0 0 1-25-16 4143.208 4143.208 0 0 0 51-92.5z" />
    </svg>